<?xml version="1.0" encoding="utf-8"?>
<!-- Generator: Adobe Illustrator 21.0.0, SVG Export Plug-In . SVG Version: 6.00 Build 0)  -->
<svg version="1.1" id="Layer_1" xmlns="http://www.w3.org/2000/svg" xmlns:xlink="http://www.w3.org/1999/xlink" x="0px" y="0px"
	 viewBox="0 0 72 72" style="enable-background:new 0 0 72 72;" xml:space="preserve">
<style type="text/css">
	.st0{fill:#231F20;}
	.st1{fill:#FFF100;}
	.st2{fill:#FFDE00;}
	.st3{fill:#FFE000;}
	.st4{fill:#FFE200;}
	.st5{fill:#E12E22;}
	.st6{fill:#FFE600;}
</style>
<g>
	<path class="st0" d="M39.4,68.3c-0.3,0.8-1.2,2.8-3.3,2.8c-2.5,0-3.3-2.7-3.4-2.8l-0.1-0.3c0,0,2.1,0.2,3.3,0.2s3.2-0.1,3.5-0.2
		L39.4,68.3L39.4,68.3z"/>
	<path class="st0" d="M45.9,66.9l0.5,0.1c-0.6,1.6-1.7,3.3-3.8,3.3c-2.1,0-3.1-1.2-3.5-2l-0.4-0.2C38.7,68.1,42.3,68,45.9,66.9
		L45.9,66.9z"/>
	<path class="st0" d="M26.4,66.9L25.9,67c0.6,1.6,1.7,3.3,3.8,3.3c2.1,0,3.2-1.3,3.6-2l0.2-0.2C33.6,68.1,30,68,26.4,66.9L26.4,66.9
		z"/>
	<path class="st1" d="M37.8,68.4c-0.3,0.5-0.6,0.5-1,0.5c-0.2,0-0.5,0.2-0.5,0.5c0,0.2,0.2,0.4,0.5,0.4c0.7,0,1.3-1,1.4-1.4
		c0,0,0.4,0,0.6,0c0,0-0.8,2.3-2.8,2.3c-2,0-2.8-2.3-2.8-2.3s1.7,0.1,2.6,0.1C36.9,68.4,37.5,68.4,37.8,68.4L37.8,68.4z"/>
	<path class="st1" d="M45.6,67.4c-1.3,0.4-2.2,0.6-4.4,0.9c0,0,0.1,0.2,0.5,0.2c0.2,0,0.2-0.1,0.3-0.1c0.1,0,0.3,0.1,0.3,0.4
		c0,0.2-0.2,0.4-0.6,0.4c-0.5,0-1.1-0.4-1.3-0.8c0,0-0.3,0.1-0.6,0.1c0,0,0.9,1.3,2.8,1.3C44.6,69.8,45.3,68,45.6,67.4L45.6,67.4z"
		/>
	<path class="st2" d="M44.3,68.7c0-0.3-0.1-0.6-0.3-0.9c-0.7,0.2-1.5,0.3-2.7,0.5c0,0,0,0.1,0,0.1c0.1,0.1,0.2,0.1,0.5,0.1
		c0.2,0,0.2-0.1,0.3-0.1c0.1,0,0.3,0.1,0.3,0.4c0,0.2-0.2,0.4-0.6,0.4c-0.1,0-0.3,0-0.4-0.1c0.1,0.2,0.2,0.4,0.3,0.6
		c0.3,0.1,0.6,0.1,0.9,0.1c0.6,0,1.2-0.2,1.6-0.5C44.2,69.1,44.3,68.9,44.3,68.7L44.3,68.7z"/>
	<path class="st3" d="M44.2,68.7c0-0.3-0.1-0.6-0.3-0.8c-0.7,0.2-1.5,0.3-2.7,0.5c0,0,0,0.1,0,0.1c0.1,0.1,0.2,0.1,0.5,0.1
		c0.2,0,0.2-0.1,0.3-0.1c0.1,0,0.3,0.1,0.3,0.4c0,0.2-0.2,0.4-0.6,0.4c-0.1,0-0.2,0-0.4-0.1c0.1,0.2,0.2,0.4,0.3,0.6
		c0.3,0.1,0.5,0.1,0.9,0.1c0.6,0,1.1-0.2,1.5-0.4C44.2,69.2,44.2,68.9,44.2,68.7L44.2,68.7z"/>
	<path class="st4" d="M44.2,68.7c0-0.3-0.1-0.6-0.3-0.8c-0.7,0.2-1.5,0.3-2.6,0.5c0,0,0,0.1,0,0.1c0.1,0,0.2,0.1,0.4,0.1
		c0.2,0,0.2-0.1,0.3-0.1c0.1,0,0.3,0.1,0.3,0.4c0,0.2-0.2,0.4-0.6,0.4c-0.1,0-0.2,0-0.3-0.1c0.1,0.2,0.2,0.4,0.3,0.6
		c0.3,0.1,0.5,0.1,0.8,0.1c0.6,0,1.1-0.2,1.5-0.4C44.2,69.2,44.2,68.9,44.2,68.7L44.2,68.7z"/>
	<path class="st1" d="M26.7,67.4c1.3,0.4,2.2,0.6,4.4,0.9c0,0-0.1,0.2-0.5,0.2c-0.2,0-0.2-0.1-0.3-0.1c-0.1,0-0.3,0.1-0.3,0.4
		c0,0.2,0.2,0.4,0.6,0.4c0.5,0,1.1-0.4,1.3-0.8c0,0,0.3,0.1,0.6,0.1c0,0-0.9,1.3-2.8,1.3C27.7,69.8,27,68,26.7,67.4L26.7,67.4z"/>
	<path class="st1" d="M35.9,56.7c7,0,14.7-4.3,20.1-10.4c0.6-0.7,1.6-1.9,3.9-1.9c2.4,0,5.5,2.1,5.1,6.1c-0.3,2.8-4.3,9.3-11.3,13.2
		c-7,4-13.4,4.8-17.8,4.8c-4.5,0-10.9-0.9-17.8-4.8c-7-4-11-10.4-11.3-13.2c-0.4-3.9,2.8-6.1,5.1-6.1s3.3,1.3,3.9,1.9
		C21.3,52.4,29,56.7,35.9,56.7L35.9,56.7z"/>
	<path class="st0" d="M35.9,56.4c3.4,0,6.9-1,10.3-2.8c3.5-1.8,6.9-4.5,9.6-7.6c0.3-0.3,0.7-0.8,1.4-1.3c0.7-0.4,1.5-0.8,2.8-0.8
		c0.1,0,0.3,0,0.4,0c1.1,0.1,2.4,0.7,3.3,1.6c1,1,1.6,2.3,1.6,4c0,0.2,0,0.4,0,0.6c-0.2,1.6-1.5,4.4-3.9,7.2
		c-1.9,2.2-4.4,4.4-7.5,6.2c-3.5,2-6.9,3.2-9.9,3.9c-3.1,0.7-5.8,0.9-8,0.9c-2.2,0-5-0.2-8-0.9c-3.1-0.7-6.4-1.9-9.9-3.9
		c-3.1-1.8-5.6-4-7.5-6.2c-2.4-2.8-3.8-5.6-3.9-7.2c0-0.2,0-0.4,0-0.6c0-1.7,0.7-3.1,1.6-4c1-1,2.2-1.5,3.3-1.6c0.1,0,0.3,0,0.4,0
		c1.2,0,2.1,0.3,2.8,0.8c0.6,0.4,1.1,0.9,1.4,1.3c2.7,3.1,6.1,5.7,9.6,7.6C29,55.4,32.6,56.4,35.9,56.4L35.9,56.4z M35.9,56.9
		c-3.5,0-7.1-1-10.5-2.8c-3.6-1.9-7-4.5-9.7-7.7c-0.3-0.3-0.7-0.8-1.3-1.2c-0.6-0.4-1.4-0.7-2.5-0.7c-0.1,0-0.2,0-0.4,0
		c-1,0.1-2.2,0.6-3,1.5C7.6,46.9,7,48.2,7,49.7c0,0.2,0,0.4,0,0.6c0.1,1.5,1.5,4.2,3.8,6.9c1.9,2.2,4.3,4.4,7.4,6.1
		c3.5,2,6.8,3.2,9.8,3.9c3,0.7,5.7,0.9,7.9,0.9c2.2,0,4.9-0.2,7.9-0.9c3-0.7,6.3-1.9,9.8-3.9c3-1.7,5.5-3.9,7.4-6.1
		c2.3-2.7,3.7-5.4,3.8-6.9c0-0.2,0-0.4,0-0.6c0-1.6-0.6-2.8-1.5-3.7c-0.9-0.9-2-1.4-3-1.5c-0.1,0-0.2,0-0.4,0
		c-1.1,0-1.9,0.3-2.5,0.7c-0.6,0.4-1,0.8-1.3,1.2c-2.8,3.2-6.2,5.8-9.7,7.7C43,55.9,39.4,56.9,35.9,56.9L35.9,56.9z"/>
	<path class="st5" d="M15.1,46.9L15.1,46.9c-0.6-0.7-1.4-1.6-3.2-1.6c-1.1,0-2.3,0.6-3.1,1.4c-0.6,0.7-1.3,1.8-1.1,3.6
		c0.2,2.4,4,8.6,10.8,12.5c5.5,3.1,11.3,4.7,17.4,4.7s11.9-1.6,17.4-4.7c6.8-3.9,10.6-10.1,10.8-12.5c0.2-1.8-0.5-2.9-1.1-3.6
		c-0.8-0.9-2-1.4-3.1-1.4c-1.8,0-2.6,0.9-3.1,1.5l-0.1,0.1c-5.8,6.6-13.8,10.8-20.8,10.8C28.9,57.6,20.9,53.5,15.1,46.9L15.1,46.9z"
		/>
	<path class="st1" d="M58.3,39c0-3.3,2.7-6,6-6c3.3,0,6,2.7,6,6c0,3.3-2.7,6-6,6C61,45.1,58.3,42.4,58.3,39L58.3,39z"/>
	<path class="st0" d="M58.1,39c0-1.7,0.7-3.3,1.8-4.5c1.1-1.1,2.7-1.8,4.5-1.8c1.7,0,3.3,0.7,4.5,1.8c1.1,1.1,1.8,2.7,1.8,4.5
		c0,1.7-0.7,3.3-1.8,4.5c-1.1,1.1-2.7,1.8-4.5,1.8c-1.7,0-3.3-0.7-4.5-1.8C58.8,42.3,58.1,40.8,58.1,39L58.1,39z M58.6,39
		c0,1.6,0.6,3.1,1.7,4.1c1,1,2.5,1.7,4.1,1.7c1.6,0,3.1-0.6,4.1-1.7c1-1,1.7-2.5,1.7-4.1c0-1.6-0.6-3.1-1.7-4.1
		c-1-1-2.5-1.7-4.1-1.7c-1.6,0-3.1,0.6-4.1,1.7C59.2,36,58.6,37.4,58.6,39L58.6,39z"/>
	<path class="st1" d="M1.6,39c0-3.3,2.7-6,6-6c3.3,0,6,2.7,6,6c0,3.3-2.7,6-6,6C4.3,45.1,1.6,42.4,1.6,39L1.6,39z"/>
	<path class="st0" d="M1.3,39c0-1.7,0.7-3.3,1.8-4.5c1.1-1.1,2.7-1.8,4.5-1.8c1.7,0,3.3,0.7,4.5,1.8c1.1,1.1,1.8,2.7,1.8,4.5
		c0,1.7-0.7,3.3-1.8,4.5c-1.1,1.1-2.7,1.8-4.5,1.8c-1.7,0-3.3-0.7-4.5-1.8C2.1,42.3,1.3,40.8,1.3,39L1.3,39z M1.9,39
		c0,1.6,0.6,3.1,1.7,4.1c1,1,2.5,1.7,4.1,1.7c1.6,0,3.1-0.6,4.1-1.7c1-1,1.7-2.5,1.7-4.1c0-1.6-0.6-3.1-1.7-4.1
		c-1-1-2.5-1.7-4.1-1.7c-1.6,0-3.1,0.6-4.1,1.7C2.5,36,1.9,37.4,1.9,39L1.9,39z"/>
	<path class="st0" d="M66,22.8l0-1.6c0.5,0.4,1.4,0.4,2-0.2c0.3-0.3,0.4-0.7,0.4-1.1c0-0.5-0.2-1-0.6-1.3c-2-2-3.8-4-3.8-4
		c-0.2-0.3-0.5-0.5-0.6-0.6c-0.3-0.1-1.1-0.5-1.8,0.5c-0.6,0.9-0.5,2.2-0.4,2.7l1.9,2.6C63.7,20.6,65.5,22.3,66,22.8L66,22.8z"/>
	<path class="st0" d="M25.3,5.9c2.4-0.8,4.6-1.5,7.5-1.7L25.3,5.9L25.3,5.9z"/>
	<path class="st0" d="M25.3,5.9c2.4-0.8,4.6-1.5,7.5-1.7l0.5-0.3c-1.7-1.3-3.3-2.2-4.9-2.2c-1,0-3.1,0.7-3.6,4.4L25.3,5.9L25.3,5.9z
		"/>
	<path class="st0" d="M46.6,5.9C44.2,5.1,42,4.4,39,4.2l-0.5-0.3c1.7-1.3,3.3-2.2,4.9-2.2c1,0,3.1,0.7,3.6,4.4L46.6,5.9L46.6,5.9z"
		/>
	<path class="st0" d="M34,3.8c0.5,0,1.6,0,2.1,0c0.5,0,1.7,0.1,2,0.1L34,3.8L34,3.8z"/>
	<path class="st0" d="M33.2,4.1c1.2-2.3,2.3-3.2,2.9-3.2c0.8,0,1.7,1.2,2.4,2.8L38.7,4L38.1,4c-0.4-0.1-1.6-0.1-2-0.1
		c-0.5,0-1.4,0-2,0L33.2,4.1L33.2,4.1z"/>
	<polygon class="st1" points="30.9,58.9 29.8,62.9 27.8,58.1 26.5,57.7 25,63.4 26.3,63.8 27.4,59.7 29.5,64.6 30.7,65 32.2,59.3 
		30.9,58.9 	"/>
	<polygon class="st1" points="35.6,59.6 34,59.5 33.7,65.4 35.3,65.5 35.6,59.6 	"/>
	<polygon class="st1" points="37,59.6 37.1,60.3 38.7,60.1 39.4,65.2 41,65 40.3,59.9 41.9,59.7 41.8,58.9 37,59.6 	"/>
	<path class="st1" d="M53,57.2c0.8,1.3,0.6,2.3-0.6,2.9l-0.5,0.3l-2.2-3.8l0.6-0.3C51.7,55.5,52.4,56.2,53,57.2L53,57.2z M49.9,55.6
		l-2,1.2l3,5.1l2-1.1c2.1-1.2,2.3-3,1.4-4.4C53.3,54.6,51.7,54.5,49.9,55.6L49.9,55.6z"/>
	<polygon class="st1" points="46.2,62.9 45.6,61 47.3,60.5 47.1,59.7 45.3,60.3 44.8,58.7 46.6,58.2 46.4,57.4 43.1,58.5 44.9,64.1 
		48.6,62.9 48.3,62.2 46.2,62.9 	"/>
	<path class="st1" d="M23.7,56.4L22,59.5c-0.5,1-1.1,1.6-2,1c-0.9-0.5-0.7-1.2-0.1-2.2l1.8-3.2l-1.4-0.8l-1.9,3.3
		c-1,1.8,0.3,3,1.3,3.5c1.1,0.6,2.6,1,3.6-0.8l1.9-3.4L23.7,56.4L23.7,56.4z"/>
	<path class="st1" d="M22.7,21.7v27.7l13.2,8.5l13.2-8.5l0-27.6c-0.4-0.4-1.3-1.2-2-1.6H24.6C24.1,20.5,22.9,21.4,22.7,21.7
		L22.7,21.7z"/>
	<polygon class="st0" points="23,21.7 23,49.2 35.9,57.5 48.9,49.2 48.9,21.7 49.4,21.7 49.4,49.3 49.4,49.4 49.3,49.5 36.1,58 
		35.9,58.1 35.8,58 22.6,49.5 22.5,49.4 22.5,21.7 23,21.7 	"/>
	<path class="st0" d="M49,21.9c-0.1-0.1,0,0-0.2-0.1h0c-0.5-0.4-1.2-1.1-1.8-1.5l0.3-0.4c0.6,0.4,1.4,1.1,1.9,1.5h0
		c0,0-0.1-0.1,0.2,0.1L49,21.9L49,21.9z"/>
	<polygon class="st0" points="47.2,20.3 24.6,20.3 24.6,19.8 47.2,19.8 47.2,20.3 	"/>
	<path class="st0" d="M24.8,20.3c-0.3,0.2-0.7,0.5-1,0.8c-0.4,0.3-0.8,0.7-0.9,0.8l-0.4-0.3c0.1-0.1,0.5-0.5,0.9-0.8
		c0.4-0.3,0.8-0.6,1-0.8L24.8,20.3L24.8,20.3z"/>
	<path class="st5" d="M36.9,33.5c-0.1,0-0.4,0.2-0.6,0.5c-0.2,0.2-0.2,0.5,0,0.7c0.2,0.1,0.5,0,0.5-0.4C36.9,34,37,33.5,36.9,33.5
		L36.9,33.5z M34.3,34.2c0.1,0.4,0.3,0.5,0.5,0.4c0.2-0.1,0.2-0.4,0-0.7c-0.2-0.2-0.5-0.5-0.6-0.5C34.2,33.5,34.3,34,34.3,34.2
		L34.3,34.2z M35.7,37.9c0.4-0.7,0.6-1.5,0.6-1.5H35C35,36.4,35.2,37.2,35.7,37.9L35.7,37.9z M35.9,32.4l1-1.8l0.8,1.8H39
		c-0.8,0.8-1.1,1.9-1.1,2.6v0.8c0,0.4-0.2,0.9-0.2,0.9s1.1,0.9,1.3,1c0.1,0.1,0.2,0.1,0.1,0.3c-0.1,0.3-0.9,0.6-1,0.7
		C38,38.9,38,39,38,39.1c0.1,0.2,0.2,0.2,0.5,0.1c0.3-0.1,0.9-0.4,1.5-0.7c0.5-0.2,1.2-0.2,1.2-0.2v-1h-2v-3.2l-0.4-0.6l0.9-1.6
		l0.9,1.6l-0.4,0.6v1.7h1v-1.7L41,33.6l0.9-1.6l0.9,1.6l-0.3,0.6v1.7h1v-1.7L43,33.6l0.9-1.6l0.9,1.6l-0.4,0.6l0,3.2l-2,0v1.5
		c0.5,0.4,0.9,1.4,0.9,2s-0.4,0.8-0.4,0.8c0.1,0.4,0.1,0.6,0,1.1c-0.1,0.4-0.6,1.1-0.6,1.1v7.6c0,0.5-1.2,0.5-1.2,0V44
		c-0.7-0.8-2.5-1.3-2.5-1.3c-0.7,0.7-1.1,1.9-1.1,1.9c0.3,0.2,0.8,0,0.9-0.2c0.2-0.2,0.5-0.2,0.7-0.1c0.2,0.1,0.3,0.2,0.2,0.5
		c-0.1,0.3-0.2,0.8-0.2,1.1c0,0.4,0.4,0.3,0.7,0.3c0.6,0,0.7,0.7,0.7,1.1c-0.1,0.4-0.2,1.2-0.2,1.7c0,0.5,0,1,0.1,1.3
		c0,0.3,0.2,0.6,0.1,0.9c0,0.5-0.3,0.6-0.6,0.3c-0.3-0.3-4.5-4.8-4.5-4.8c-0.3,0.9,0.9,2.5,1.3,2.9c0.4,0.5,0.4,0.8,0,1.2
		c-0.3,0.3-1,0.5-1.1,0.8c-0.1,0.3,0.3,1.2,1.2,2.3c0.9,1.1-1,1.9-2.1,2.1c-1.1,0.2-1.1-0.6-1.1-1c0.1-0.4,0.1-0.7,0-1.1
		c0-0.4-0.4-0.9-0.9-1.5c-0.5-0.6-0.5-1.2-0.3-2.7c0.2-1.5,0.2-2.4,0.2-2.4s-0.5,0-1.2,0c-0.7,0-1.3-0.4-1.4-2.2
		c0-1.8-0.1-5.9-0.2-6.4c-0.1-0.4-0.6-0.5-0.8-0.6c-0.2-0.1-0.2-0.4,0-0.5c0.5-0.3,1.1-0.9,0.9-1.3c-0.2-0.4-1.2-0.3-1.8,0
		c-0.6,0.3-1.3,1-1.4,1.1c-0.2,0.2-0.3,0.2-0.3,0c0-0.2-0.1-1.2-0.2-1.5c-0.1-0.3-0.4-1-0.5-1.1c-0.1-0.2,0-0.2,0.2-0.2
		c0.2,0.1,0.5,0.2,0.9,0.3c0.4,0.1,0.7-0.1,0.9-0.4c0.2-0.3,0.5-1.1,0.7-1.4c0.2-0.3,0.4-0.3,0.7-0.2c0.2,0,0.4,0.2,0.6,0.3
		c0.2,0.1,0.4,0.1,0.4,0c0.1-0.1,0.2-0.1,0.3-0.4c0.1-0.3,0.3-0.1,0.3,0c0.6,3.6,2.2,3.8,2.2,3.8c-0.2,0.6-0.8,1.6-0.9,1.8
		c-0.1,0.2-0.2,0.6-0.2,0.8c0,0.3,0.1,2.6,0.3,3.5c0.2,0.9,0.7,0.5,0.9,0.3c0.2-0.3,0.7-1.4,0.7-1.4s0.1-0.3,0.1-0.6
		c0-0.3-0.4-0.8-0.5-1c-0.1-0.2-0.5-0.5-0.5-1.3c0-0.8,0.8-1.4,1-1.6c0.3-0.2,0.3-0.5,0.2-0.7c-0.1-0.6-0.8-2-1.1-2.5
		c-0.3-0.5-1-1.5-1-1.5h1.4l0.9-1.8l1,1.8L35.9,32.4L35.9,32.4z M41.2,41.5v-1c0,0-0.3-0.4-1-0.4c-0.7,0-1.1,0.2-1.1,0.4
		C39.2,40.7,39.8,41.5,41.2,41.5L41.2,41.5z"/>
	<polygon class="st5" points="23.7,28.6 48.1,28.6 48.1,30.2 23.7,30.2 23.7,28.6 	"/>
	<polygon class="st5" points="23.7,27.7 23.7,21.1 48.1,21.1 48.1,27.7 23.7,27.7 	"/>
	<polygon class="st1" points="43.3,27.9 43.3,26.8 41.6,26.8 41.6,26 43,26 43,22.8 41.7,22.8 41.2,22 40.8,22.8 39.5,22.8 39.5,26 
		40.9,26 40.9,26.8 37.4,26.8 37.4,26 38.9,26 38.9,22.8 37.6,22.8 37.1,22 36.7,22.8 35.3,22.8 35.3,26 36.8,26 36.8,26.8 
		33.2,26.8 33.2,26 34.7,26 34.7,22.8 33.3,22.8 32.9,22 32.4,22.8 31.1,22.8 31.1,26 32.6,26 32.6,26.8 29.8,26.8 27,26.1 
		27.5,27.9 43.3,27.9 	"/>
	<polygon class="st1" points="27.9,26 29.8,26.4 30.8,23.6 30.8,22.9 27.9,26 	"/>
	<path class="st1" d="M32.5,4c-2.9,0.3-4.7,0.9-7,1.7c0.2-1,0.4-1.6,0.8-2.2c0,0.5,0.4,1.1,1.2,1.1c0.9,0,1.3-0.5,1.3-0.8
		c0-0.3-0.2-0.7-0.6-0.7c-0.5,0-0.6,0.3-0.5,0.5c0,0.1-0.1,0.2-0.2,0.2c-0.1,0-0.5-0.2-0.4-0.6c0.1-0.5,0.8-0.8,1.5-0.8
		C28.6,2.3,30.3,2.2,32.5,4L32.5,4z"/>
	<path class="st1" d="M46.5,5.7c-2.4-0.8-4.2-1.4-7.1-1.7c1.3-0.9,2.6-1.7,3.9-1.7c0.7,0,1.3,0.3,1.5,0.8c0.1,0.5-0.2,0.7-0.4,0.6
		c-0.1,0-0.2-0.1-0.2-0.2c0-0.1-0.1-0.5-0.5-0.5c-0.5,0-0.6,0.4-0.6,0.7c0,0.3,0.5,0.8,1.3,0.8s1.3-0.6,1.2-1.1
		C46,4.1,46.3,4.7,46.5,5.7L46.5,5.7z"/>
	<path class="st1" d="M34.2,3.5c-0.1,0.1-0.1,0.2-0.2,0.4c0.5,0,1.6,0,2,0c0.4,0,1.7,0.1,1.9,0.1c-0.4-1-1.2-2.4-1.8-2.4
		c-0.1,0-0.4-0.1-0.8,0.5c0,0-0.1,0.2,0.2,0.2c0.4-0.1,0.5,0.3,0.5,0.5c-0.1,0.4-0.6,0.9-1.1,0.9C34.4,3.5,34.2,3.5,34.2,3.5
		L34.2,3.5z"/>
	<path class="st0" d="M9,19.8l1.9-2.6c0.1-0.5,0.2-1.8-0.4-2.7c-0.7-1-1.6-0.6-1.8-0.5c-0.2,0.1-0.5,0.3-0.6,0.6c0,0-1.8,2-3.9,4
		c-0.3,0.3-0.6,0.8-0.6,1.3c0,0.4,0.1,0.9,0.4,1.1c0.6,0.6,1.5,0.6,2,0.2l0,1.6C6.5,22.3,8.4,20.6,9,19.8L9,19.8z"/>
	<path class="st1" d="M35.9,16C46.8,16,53,26.2,54.4,28c2.4,3.2,5.3,5.8,8.7,4.9c5-1.3,4.7-8.7,4.7-8.7c-1.2-0.9-3.3-2-7-7.3
		C57.2,11.8,48.9,4,35.9,4C23,4,14.7,11.8,11,17c-3.7,5.3-5.8,6.4-7,7.3c0,0-0.3,7.4,4.7,8.7c3.4,0.9,6.3-1.7,8.7-4.9
		C18.8,26.2,25,16,35.9,16L35.9,16z"/>
	<path class="st0" d="M35.9,15.7c10.1,0,16.2,8.7,18.2,11.5c0.2,0.3,0.3,0.5,0.4,0.6c1.2,1.6,2.5,3,3.9,3.9c1.4,0.9,2.9,1.3,4.6,0.9
		c4.4-1.1,4.6-7.4,4.6-8.3c-0.1-0.1-0.2-0.1-0.3-0.2c-1.3-0.9-3.3-2.3-6.7-7c-2.1-3-5.8-6.8-10.9-9.5c-3.8-2-8.4-3.3-13.8-3.3
		c-5.4,0-10,1.4-13.8,3.3c-5.2,2.7-8.8,6.5-10.9,9.5c-3.4,4.8-5.4,6.2-6.7,7c-0.1,0.1-0.2,0.1-0.3,0.2c0,1,0.1,7.2,4.6,8.3
		c1.6,0.4,3.1,0,4.6-0.9c1.4-0.9,2.7-2.4,3.9-3.9c0.1-0.1,0.2-0.3,0.4-0.6C19.7,24.4,25.8,15.7,35.9,15.7L35.9,15.7z M35.9,16.2
		c-9.9,0-15.9,8.5-17.8,11.3c-0.2,0.2-0.3,0.4-0.4,0.6c-1.2,1.6-2.6,3.1-4.1,4.1c-1.5,1-3.2,1.4-4.9,1c-5.2-1.3-4.9-8.9-4.9-8.9
		l0-0.1L3.9,24c0.1-0.1,0.3-0.2,0.4-0.3c1.2-0.8,3.2-2.2,6.5-6.9c2.1-3,5.9-6.9,11.1-9.7c3.8-2,8.5-3.4,14-3.4s10.2,1.4,14,3.4
		c5.3,2.7,9,6.6,11.1,9.7c3.3,4.7,5.3,6.1,6.5,6.9c0.1,0.1,0.3,0.2,0.4,0.3l0.1,0.1l0,0.1c0,0,0.3,7.6-4.9,8.9c-1.8,0.5-3.4,0-4.9-1
		c-1.5-1-2.8-2.4-4.1-4.1c-0.1-0.2-0.3-0.4-0.4-0.6C51.8,24.8,45.8,16.2,35.9,16.2L35.9,16.2z"/>
	<path class="st5" d="M35.9,15c10.5,0,16.7,8.9,18.8,11.8c0.2,0.2,0.3,0.4,0.4,0.6c2.8,3.7,5.3,5.2,7.7,4.6c3.5-0.9,3.9-5.7,4-7.2
		l0-0.1l0,0c-1.2-0.9-3.3-2.3-6.8-7.2C58,14.6,50.1,5,35.9,5c-14.2,0-22.1,9.6-24.1,12.5c-3.4,4.9-5.6,6.4-6.8,7.2l0,0l0,0.1
		c0.1,1.5,0.5,6.3,4,7.2c2.4,0.6,5-0.9,7.7-4.6c0.1-0.1,0.2-0.3,0.4-0.6C19.2,23.9,25.4,15,35.9,15L35.9,15z"/>
	<polygon class="st1" points="13.4,19.1 12.3,20.4 14.3,24.7 9.9,23.2 9,24.3 13.5,28.1 14.2,27.3 11,24.6 15.3,26 15.7,25.5 
		13.7,21.4 16.9,24.1 17.9,22.9 13.4,19.1 	"/>
	<path class="st1" d="M19.1,18.2l-1,1.1l-1-2L19.1,18.2L19.1,18.2z M16.7,15.5l-1,1.1l2.8,5.6l0.7-0.7L18.4,20l1.4-1.5l1.5,0.7
		l1.1-1.2L16.7,15.5L16.7,15.5z"/>
	<polygon class="st1" points="23.6,10.2 25.8,13.7 20.9,11.9 19.8,12.6 22.9,17.6 24.1,16.8 21.9,13.3 26.9,15.1 27.9,14.4 
		24.8,9.4 23.6,10.2 	"/>
	<polygon class="st1" points="42.3,13.1 42.9,11.3 44.6,11.9 44.9,11.1 43.2,10.5 43.7,9 45.5,9.6 45.7,8.9 42.5,7.7 40.6,13.3 
		44.2,14.6 44.4,13.8 42.3,13.1 	"/>
	<polygon class="st1" points="52.4,12.7 51.9,13.3 53.1,14.4 49.7,18.2 50.8,19.3 54.3,15.5 55.5,16.6 56,16 52.4,12.7 	"/>
	<polygon class="st1" points="54.1,21.6 55.5,20.4 56.7,21.8 57.3,21.3 56.2,19.9 57.4,18.8 58.6,20.3 59.2,19.7 57,17.1 52.5,20.9 
		54.9,23.8 55.5,23.3 54.1,21.6 	"/>
	<path class="st1" d="M60.9,23.1c0.4,0.5,0.4,1-0.1,1.4c-0.5,0.4-1.1,0.3-1.5-0.2l-0.3-0.3l1.5-1.3L60.9,23.1L60.9,23.1z M60.1,26
		c0,0,0.9,0.5,1.9-0.4c0.8-0.8,0.6-1.8-0.3-2.7L60.1,21l-4.4,4l1,1.2l1.7-1.6l0.5,0.6l-1.1,2.5l1.3,1.1L60.1,26L60.1,26z"/>
	<polygon class="st1" points="37.9,7.3 37.9,9.7 35.6,9.6 35.6,7.2 34.1,7.2 34,13.1 35.5,13.1 35.6,10.4 37.9,10.5 37.8,13.2 
		39.4,13.2 39.5,7.3 37.9,7.3 	"/>
	<path class="st1" d="M46.3,16c1.1,0.7,2.3,0.6,2.9-0.4c0.4-0.7,0.4-1.2-0.1-2.2c-0.1-0.3-0.3-0.5-0.4-0.7c-0.2-0.4-0.4-0.7-0.2-1.1
		c0.2-0.3,0.7-0.4,1.1-0.1c0.5,0.3,0.6,0.7,0.7,1l0.7-0.3c-0.2-0.6-0.5-1.1-1.3-1.5c-1.3-0.8-2.3-0.6-2.7,0.2
		c-0.4,0.7-0.3,1.3,0,1.9c0,0,0.2,0.4,0.3,0.6c0.3,0.5,0.6,1.1,0.4,1.5c-0.3,0.5-0.8,0.6-1.2,0.3c-0.6-0.4-0.7-0.8-0.9-1.3l-0.8,0.3
		C45,14.9,45.5,15.5,46.3,16L46.3,16z"/>
	<path class="st1" d="M30.2,7.6C28.3,8,27,9.4,27.5,11.3c0.2,1,1.2,3,4.1,2.3c0.8-0.2,1.3-0.5,1.7-0.9l-0.5-0.6
		c-0.2,0.2-0.5,0.6-1.2,0.7c-1.4,0.3-2.3-0.9-2.5-1.8c-0.3-1.5,0.5-2.5,1.5-2.7c0.7-0.1,1.1,0,1.4,0.1l0,0l0.2-0.8
		C31.7,7.5,31.1,7.4,30.2,7.6L30.2,7.6z"/>
	<path class="st1" d="M61.5,17.4c-0.1-0.4-0.2-1.8,0.4-2.6c0.5-0.7,1-0.5,1.3-0.4c0.1,0.1,0.5,0.3,0.5,0.7c0,0.2,0,0.6-0.2,0.8
		c-0.4,0.5-1.2,0.8-1.2,0.8s1,2.1,3.3,4.1l0,1.4C62.5,19.3,61.5,17.4,61.5,17.4L61.5,17.4z"/>
	<path class="st1" d="M63.1,17c0.3,0.5,1.1,1.8,3,3.6c0.3,0.3,1.1,0.5,1.6,0c0.2-0.2,0.3-0.5,0.3-0.8c0-0.4-0.2-0.8-0.5-1
		c-0.4-0.3-2-2-3.2-3.3c0,0.2-0.2,0.6-0.2,0.6C63.8,16.4,63.6,16.7,63.1,17L63.1,17z"/>
	<path class="st1" d="M6.4,22.1l0-1.3c2.2-2,3.3-4.1,3.3-4.1s-0.8-0.3-1.2-0.8c-0.2-0.3-0.3-0.6-0.2-0.8c0.1-0.4,0.4-0.7,0.5-0.7
		c0.3-0.1,0.7-0.4,1.3,0.4c0.6,0.8,0.4,2.3,0.3,2.6C10.4,17.4,9.4,19.2,6.4,22.1L6.4,22.1z"/>
	<path class="st1" d="M8.9,17c-0.3,0.5-1.1,1.8-3,3.6c-0.3,0.3-1.1,0.5-1.6,0c-0.2-0.2-0.3-0.5-0.3-0.8c0-0.4,0.2-0.8,0.5-1
		c0.4-0.3,2-2,3.2-3.3c0,0.2,0.2,0.6,0.2,0.6C8.2,16.4,8.4,16.7,8.9,17L8.9,17z"/>
	<path class="st5" d="M2.7,39.1c0-2.7,2.2-4.9,4.9-4.9c2.7,0,4.9,2.2,4.9,4.9c0,2.7-2.2,4.9-4.9,4.9C4.9,44,2.7,41.8,2.7,39.1
		L2.7,39.1z"/>
	<path class="st1" d="M10.3,35.5c0.1,0.1,0.3,0.2,0.3,0.2c0.4,0.4,0.8,0.8,1,1.4c0.3,0.7-0.6,1.7-0.8,1.9c-1.1,1.1-1.9,1.1-2.3,1.1
		c-0.4,0.1-0.7-0.2-0.7-0.5c0-0.9,0.7-2.4,0.8-2.7C8.8,36.7,9,36.6,9,36.6c0.4-0.1,0.8-0.3,1-0.5C10.3,35.8,10.3,35.5,10.3,35.5
		L10.3,35.5z M6.2,34.9c0.5-0.2,0.9-0.2,1.4-0.2c0.8,0,1.5,0.1,2.1,0.5c0.2,0.1,0.2,0.2,0.2,0.4c0,0.6-0.9,0.8-1.5,0.8
		c-0.6,0-1.4-0.2-1.9-0.4c-0.5-0.2-0.6-0.5-0.6-0.6C5.9,35.2,6,34.9,6.2,34.9L6.2,34.9z M4.2,42c-0.6-0.6-1.1-1.7-1.1-2.9
		c0-0.5,0.1-0.9,0.2-1.3c0,0,0.1-0.2,0.2,0c0.1,0.1,0.2,0.2,0.3,0.4c0.1,0.2,0.6,0.5,0.5,0.8c-0.2,1.1,0,2.5,0,2.8
		C4.4,42,4.4,42.1,4.2,42L4.2,42z M4.4,38.2c-0.2-0.1-0.5-0.7-0.6-0.8c-0.1-0.1-0.1-0.5,0-0.6c0.4-0.6,0.9-1.2,1.5-1.5
		c0.1,0,0.2,0,0.2,0.2c0,0.1,0.1,0.3,0.1,0.4c0,0.1,0,0.3-0.1,0.5c-0.1,0.2-0.7,1.2-0.9,1.8C4.6,38.2,4.6,38.3,4.4,38.2L4.4,38.2z
		 M7.7,43.5C7.7,43.5,7.7,43.5,7.7,43.5c-0.9,0-1.8-0.3-2.3-0.6c-0.5-0.3-0.8-1.7-0.8-2.4c0-2.3,1-3.7,1.1-4
		c0.2-0.3,0.5-0.3,0.7-0.2c0.3,0.1,0.4,0.1,0.6,0.2c0.2,0,0.5,0.1,0.7,0.2c0.2,0.1,0.5,0.1,0.3,0.5C8,37.6,7.5,38.7,7.5,40
		c-0.1,1.1,0.1,2.3,0.4,3C8,43.4,8,43.5,7.7,43.5L7.7,43.5z M8.9,43.4c-0.3,0.1-0.4-0.1-0.5-0.2C8,42.6,7.8,41.2,7.8,41
		c0-0.2,0.1-0.4,0.2-0.4c1.1,0,1.9-0.4,2.6-0.9c0.7-0.6,1-1.3,1.1-1.4c0.1-0.1,0.2-0.1,0.2,0.1c0,0.2,0.1,0.4,0.1,0.7
		C12.1,41.1,10.7,42.8,8.9,43.4L8.9,43.4z"/>
	<path class="st5" d="M69.3,39.1c0-2.7-2.2-4.9-4.9-4.9c-2.7,0-4.9,2.2-4.9,4.9c0,2.7,2.2,4.9,4.9,4.9C67.1,44,69.3,41.8,69.3,39.1
		L69.3,39.1z"/>
	<path class="st1" d="M62,36.1c0.2,0.2,0.6,0.4,1,0.5c0,0,0.2,0.1,0.3,0.3c0.2,0.3,0.8,1.8,0.8,2.7c0,0.3-0.2,0.6-0.7,0.5
		c-0.4-0.1-1.1,0-2.3-1.1c-0.3-0.2-1.1-1.2-0.8-1.9c0.2-0.5,0.6-1,1-1.4c0,0,0.2-0.2,0.3-0.2C61.8,35.5,61.8,35.8,62,36.1L62,36.1z
		 M66.1,35.3c0,0.1-0.1,0.4-0.6,0.6c-0.5,0.2-1.3,0.4-1.9,0.4c-0.6,0-1.5-0.2-1.5-0.8c0-0.2,0-0.3,0.2-0.4c0.6-0.4,1.4-0.5,2.1-0.5
		c0.5,0,1,0.1,1.4,0.2C66,34.9,66.1,35.2,66.1,35.3L66.1,35.3z M67.7,41.7c0.1-0.2,0.2-1.7,0-2.8c0-0.3,0.4-0.7,0.5-0.8
		c0.1-0.2,0.2-0.3,0.3-0.4c0.1-0.2,0.2,0,0.2,0c0.1,0.4,0.2,0.8,0.2,1.3c0,1.2-0.4,2.3-1.1,2.9C67.7,42.1,67.6,42,67.7,41.7
		L67.7,41.7z M67.4,38.1c-0.1-0.6-0.7-1.6-0.9-1.8c-0.1-0.2-0.1-0.4-0.1-0.5c0-0.1,0.1-0.3,0.1-0.4c0-0.2,0.1-0.2,0.2-0.2
		c0.7,0.3,1.2,0.9,1.5,1.5c0.1,0.1,0.1,0.5,0,0.6c-0.1,0.2-0.3,0.7-0.6,0.8C67.5,38.3,67.5,38.2,67.4,38.1L67.4,38.1z M64.2,42.9
		c0.3-0.7,0.4-1.8,0.4-3c-0.1-1.3-0.6-2.3-0.7-2.8c-0.2-0.4,0.1-0.5,0.3-0.5c0.2-0.1,0.6-0.1,0.7-0.2c0.3-0.1,0.4-0.1,0.6-0.2
		c0.3-0.1,0.6,0,0.7,0.2c0.2,0.3,1.1,1.7,1.1,4c0,0.7-0.2,2.1-0.8,2.4c-0.5,0.3-1.4,0.6-2.2,0.6c0,0-0.1,0-0.1,0
		C64.1,43.5,64.1,43.4,64.2,42.9L64.2,42.9z M60,39.1c0-0.3,0.1-0.6,0.1-0.7c0-0.2,0.2-0.2,0.2-0.1c0.1,0.1,0.4,0.8,1.1,1.4
		c0.7,0.6,1.5,0.9,2.6,0.9c0.1,0,0.2,0.2,0.2,0.4c0,0.2-0.1,1.6-0.6,2.1c-0.1,0.1-0.2,0.3-0.5,0.2C61.3,42.8,60,41.1,60,39.1
		L60,39.1z"/>
	<path class="st6" d="M59.5,39.1c0-1.4,0.6-2.6,1.4-3.5c0.9-0.9,2.1-1.4,3.5-1.4c1.4,0,2.6,0.6,3.5,1.4c0.9,0.9,1.4,2.1,1.4,3.5
		c0,1.4-0.6,2.6-1.4,3.5c-0.9,0.9-2.1,1.4-3.5,1.4c-1.4,0-2.6-0.6-3.5-1.4C60.1,41.7,59.5,40.4,59.5,39.1L59.5,39.1z M59.6,39.1
		c0,1.4,0.5,2.6,1.4,3.5c0.9,0.9,2.1,1.4,3.5,1.4c1.4,0,2.6-0.5,3.5-1.4c0.9-0.9,1.4-2.1,1.4-3.5c0-1.4-0.5-2.6-1.4-3.5
		c-0.9-0.9-2.1-1.4-3.5-1.4c-1.4,0-2.6,0.5-3.5,1.4C60.1,36.5,59.6,37.7,59.6,39.1L59.6,39.1z"/>
</g>
</svg>
