<?xml version="1.0" encoding="utf-8"?>
<!-- Generator: Adobe Illustrator 21.0.0, SVG Export Plug-In . SVG Version: 6.00 Build 0)  -->
<svg version="1.1" id="Layer_1" xmlns="http://www.w3.org/2000/svg" xmlns:xlink="http://www.w3.org/1999/xlink" x="0px" y="0px"
	 viewBox="0 0 155 55" style="enable-background:new 0 0 155 55;" xml:space="preserve">
<style type="text/css">
	.st0{fill:none;stroke:#FFFFFF;stroke-width:1.5294;stroke-linecap:round;stroke-miterlimit:10;}
	.st1{fill:none;stroke:#FFFFFF;stroke-width:0.3638;stroke-linecap:round;stroke-miterlimit:10;}
	.st2{fill:#FFFFFF;}
	.st3{fill:none;stroke:#FFFFFF;stroke-width:0.3638;stroke-miterlimit:10;}
</style>
<g>
	<path class="st0" d="M25.1,22.8c6.3-3.2,12.5-6.5,18.8-9.8c3.2-1.7,7.1-3.3,10.8-2.8c3.8,0.4,6.7,3.3,8.7,6.4
		c1.8,2.9,2.9,8,6.9,8.6c3.3,0.4,4.1-2.4,5.8-4.4c4.6-5.6,9.9-11,15.9-15.1c3.8-2.5,7.6-4.3,12.2-4.5c6.4-0.2,12.2,2.5,17.6,5.8"/>
	<path class="st0" d="M122.3,19.1c-0.2-7.8,4.5-15.5,12.4-17.2"/>
	<g>
		<circle class="st1" cx="139.8" cy="18.8" r="14.6"/>
		<polygon class="st2" points="133.2,5.8 133.8,6 133.5,9.7 130,12.5 127.3,11.3 128.4,9.7 129.4,8.6 130.5,7.6 131.8,6.6 		"/>
		<polygon class="st2" points="141,4.3 143.3,6.9 146.6,6 145.2,5.3 143.8,4.8 142.6,4.5 141.6,4.4 		"/>
		<g>
			<polygon class="st2" points="142.3,10.9 137.3,12.3 137.3,17.5 142,19.4 145.2,15.6 			"/>
		</g>
		<polygon class="st2" points="129.8,19.4 128,23 131.7,27.9 133.8,26.2 133.3,21.6 		"/>
		<polygon class="st2" points="139.8,28.8 143.3,24.9 147.4,26.6 145.9,29.9 141.8,31 		"/>
		<polygon class="st2" points="151.4,12.9 153.6,16.3 153.4,21.6 151,21.6 149.9,17.1 		"/>
		<path class="st3" d="M143.4,6c0,0-1.2,4.6-1.5,6.1"/>
		<path class="st3" d="M138,12.9c0,0-3.5-2.6-5.2-3.7"/>
		<path class="st3" d="M130,12.2c0,0-0.5,6.4,0,7.9"/>
		<path class="st3" d="M137.7,17.3c0,0-4,4.4-4.8,4.8"/>
		<path class="st3" d="M133.3,25.9c0,0,5.8,2.6,7.1,2.9"/>
		<path class="st3" d="M128.3,23c0,0-1.6,0-2.6-0.4"/>
		<path class="st3" d="M131.8,27.3c0,0-0.4,3.2,0.5,4.1"/>
		<path class="st3" d="M141.9,30.7c0,0-1.2,2.6-2,2.7"/>
		<path class="st3" d="M145.8,29.8c0,0,1.4,0.9,1.8,1.4"/>
		<path class="st3" d="M146.9,26.7c0,0,4.6-5.1,4.8-6.5"/>
		<path class="st3" d="M141.7,18.6c0,0,1.5,4,1.8,7.3"/>
		<path class="st3" d="M144.3,15.6c0,0,5.2,0.7,6.4,1.6"/>
		<path class="st3" d="M153,21.1c0,0,1,1,0.8,1.6"/>
		<path class="st3" d="M153.4,16.4c0,0,0.7-0.1,0.7,0"/>
		<path class="st3" d="M151.5,13.3c0,0-0.2-3.5-0.7-4"/>
		<path class="st2" d="M125.2,18.7c0,0,1.1,11.1,11.1,13.4c0,0,8.9,2.4,14.9-4c0,0-5.4,7.5-15.1,4.9C136,32.9,125.6,30.5,125.2,18.7
			z"/>
	</g>
	<g>
		<path class="st2" d="M3.8,40.9H0.7V27h3.2v5.5h4.5V27h3.2v13.9H8.3v-5.6H3.8V40.9z"/>
		<path class="st2" d="M18.1,32c2.9,0,5.1,1.9,5.1,4.6c0,2.7-2.2,4.6-5.1,4.6c-3.1,0-5.2-1.9-5.2-4.6C12.9,33.9,15.2,32,18.1,32z
			 M18.1,38.6c1.2,0,2-0.8,2-2c0-1.2-0.9-2-2-2c-1.1,0-2,0.8-2,2C16,37.8,16.8,38.6,18.1,38.6z"/>
		<path class="st2" d="M24.6,32.3h3v0.9h0c0.7-0.7,1.5-1.2,2.5-1.2c1.1,0,2.4,0.4,3,1.6C34,32.5,35,32,35.9,32
			c1.6,0,3.4,0.8,3.4,3.2v5.7h-3V36c0-0.9-0.5-1.6-1.5-1.6c-0.9,0-1.3,0.7-1.4,1.3v5.1h-3V36c0-0.9-0.5-1.6-1.5-1.6
			c-1,0-1.4,0.8-1.4,1.4v5h-3V32.3z"/>
		<path class="st2" d="M43.6,37c0,1.3,1.1,1.8,1.9,1.8c1,0,1.4-0.2,2.1-1l2.2,1.1c-1,1.6-2.6,2.3-4.5,2.3c-2.6,0-4.7-2.1-4.7-4.6
			c0-2.5,2.1-4.6,4.7-4.6c2.6,0,4.6,1.5,4.6,4.6c0,0.1,0,0.3,0,0.4H43.6z M47,35.3c-0.1-0.9-0.8-1.4-1.6-1.4c-1,0-1.6,0.6-1.6,1.4
			H47z"/>
		<path class="st2" d="M58.8,33.5c-0.8-1-1.4-2-1.4-3.1c0-2.2,1.5-3.6,4.4-3.6c2.8,0,4.1,1.9,4.1,3.6c0,2.1-2.7,3.4-2.7,3.4l1.9,1.9
			c0,0,0.6-0.3,2-1.8l2,1.9c0,0-0.9,1.1-2,1.9l3,3.1h-4l-1.4-1.4c-1.2,0.9-2.3,1.7-4.5,1.7c-2.1,0-4.8-0.8-4.8-3.9
			C55.4,35.5,57.1,34.3,58.8,33.5z M60.4,35.2c0,0-1.4,0.5-1.4,1.8c0,0.8,0.8,1.2,1.6,1.2c1.1,0,2.1-0.8,2.1-0.8L60.4,35.2z
			 M60.6,30.4c0,0.8,1,1.7,1,1.7c0.7-0.4,1.5-1,1.5-1.7c0-0.7-0.3-1.4-1.3-1.4C60.9,29,60.6,29.6,60.6,30.4z"/>
		<path class="st2" d="M87.2,40.9h-3.4l-1-2.8h-5.3l-1,2.8H73L78.6,27h2.9L87.2,40.9z M80.1,31.3L80.1,31.3l-1.6,4h3.1L80.1,31.3z"
			/>
		<path class="st2" d="M90.9,40.9l-4.6-8.6h3.4l2.1,4.7l2.1-4.7h2.1l2.1,4.7l2.1-4.7h3.4l-4.6,8.6h-2l-2-4.5l-2,4.5H90.9z"/>
		<path class="st2" d="M107.7,32c1.2,0,2.1,0.4,2.8,1.1v-0.8h3v8.6h-2.9v-1h0c-0.6,0.7-1.6,1.2-2.8,1.2c-2.5,0-4.3-2-4.3-4.6
			C103.4,34.1,105.2,32,107.7,32z M108.6,38.6c1.2,0,2-0.8,2-2c0-1.2-0.9-2-2-2c-1.1,0-2,0.8-2,2C106.6,37.8,107.4,38.6,108.6,38.6z
			"/>
		<path class="st2" d="M125.5,32.3l-6.8,13h-3.4l3-5.7l-4.1-7.3h3.4l2.4,4.4l2.1-4.4H125.5z"/>
	</g>
	<g>
		<line class="st3" x1="45.1" y1="51" x2="59.1" y2="51"/>
		<line class="st3" x1="96.2" y1="51" x2="110.2" y2="51"/>
		<g>
			<path class="st2" d="M68.9,51.1c0,1.5-1.2,2.7-2.8,2.7c-1.6,0-2.8-1.2-2.8-2.7c0-1.5,1.2-2.7,2.8-2.7
				C67.7,48.4,68.9,49.6,68.9,51.1z M63.9,51.1c0,1.2,1,2.2,2.2,2.2c1.2,0,2.2-1,2.2-2.2s-1-2.1-2.2-2.1
				C64.9,49,63.9,49.9,63.9,51.1z"/>
			<path class="st2" d="M74.8,52.5h-2.9l-0.6,1.4h-0.7l2.4-5.4h0.6l2.4,5.4h-0.7L74.8,52.5z M74.6,51.9l-1.2-2.8l-1.2,2.8H74.6z"/>
			<path class="st2" d="M80,49c-0.7,0-1.1,0.3-1.1,0.7c0,1.4,3,0.7,3,2.6c0,0.9-0.8,1.5-1.9,1.5c-0.8,0-1.6-0.3-2.1-0.8l0.3-0.5
				c0.5,0.5,1.2,0.8,1.8,0.8c0.8,0,1.3-0.3,1.3-0.8c0-1.4-3-0.7-3-2.6c0-0.8,0.7-1.4,1.9-1.4c0.6,0,1.3,0.2,1.7,0.5l-0.3,0.5
				C81,49.2,80.4,49,80,49z"/>
			<path class="st2" d="M85.3,48.4v5.4h-0.6v-5.4H85.3z"/>
			<path class="st2" d="M90,49c-0.7,0-1.1,0.3-1.1,0.7c0,1.4,3,0.7,3,2.6c0,0.9-0.8,1.5-1.9,1.5c-0.8,0-1.6-0.3-2.1-0.8l0.3-0.5
				c0.5,0.5,1.2,0.8,1.8,0.8c0.8,0,1.3-0.3,1.3-0.8c0-1.4-3-0.7-3-2.6c0-0.8,0.7-1.4,1.9-1.4c0.6,0,1.3,0.2,1.7,0.5l-0.3,0.5
				C91,49.2,90.4,49,90,49z"/>
		</g>
	</g>
</g>
</svg>
