<svg xmlns="http://www.w3.org/2000/svg" viewBox="0 0 59 59"><defs><style>.cls-1{fill:#010101;}.cls-2{fill:#f1c22b;}</style></defs><title>Asset 1</title><g id="Layer_2" data-name="Layer 2"><g id="Layer_1-2" data-name="Layer 1"><circle class="cls-1" cx="29.5" cy="29.5" r="29.5"/><path id="Facebook_Places" data-name="Facebook Places" class="cls-2" d="M37.78,21.73a9.23,9.23,0,0,0-.48-1.19,10,10,0,0,0-9.39-6.19,10,10,0,0,0-10.07,9.2v1.26c0,.05,0,.53,0,.76.37,3,2.7,6.09,4.44,9,1.87,3.16,3.81,6.27,5.74,9.38,1.19-2,2.37-4.08,3.53-6.06.32-.58.68-1.16,1-1.71.21-.37.61-.74.8-1.08,1.87-3.43,4.88-6.88,4.88-10.28v-1.4A10.52,10.52,0,0,0,37.78,21.73ZM28,28.08a3.62,3.62,0,0,1-3.47-2.48,3.44,3.44,0,0,1-.1-.92v-.82a3.43,3.43,0,0,1,3.68-3.37,3.73,3.73,0,0,1,3.74,3.79A3.83,3.83,0,0,1,28,28.08Z"/></g></g></svg>