<svg xmlns="http://www.w3.org/2000/svg" viewBox="0 0 59 59"><defs><style>.cls-1{fill:#010101;}.cls-2{fill:#f1c22b;}</style></defs><title>Asset 2</title><g id="Layer_2" data-name="Layer 2"><g id="Layer_1-2" data-name="Layer 1"><circle class="cls-1" cx="29.5" cy="29.5" r="29.5"/><path class="cls-2" d="M38.32,28.38c-1.8-.42-4.1-1.52-4.93-2.89a2.36,2.36,0,0,1-.14-2.35l.08-.15a1.31,1.31,0,0,1,.13-.65l0,0H24.24v0h0c.21.32.39.61.48.8a2.36,2.36,0,0,1-.13,2.36c-.83,1.37-3.13,2.47-4.93,2.89l-.5,8.34a1.46,1.46,0,0,0,1.33,1.66h17a1.46,1.46,0,0,0,1.33-1.66Zm-12.1,5.74H24.63a.53.53,0,1,1,0-1.06h1.59a.53.53,0,1,1,0,1.06Zm0-2H24.63a.53.53,0,1,1,0-1.06h1.59a.53.53,0,1,1,0,1.06Zm0-2H24.63a.53.53,0,1,1,0-1.06h1.59a.53.53,0,1,1,0,1.06Zm3.57,4.05H28.2a.53.53,0,1,1,0-1.06H29.8a.53.53,0,1,1,0,1.06Zm0-2H28.2a.53.53,0,1,1,0-1.06H29.8a.53.53,0,1,1,0,1.06Zm0-2H28.2a.53.53,0,1,1,0-1.06H29.8a.53.53,0,1,1,0,1.06Zm3.57,4.05H31.77a.53.53,0,0,1,0-1.06h1.59a.53.53,0,1,1,0,1.06Zm0-2H31.77a.53.53,0,0,1,0-1.06h1.59a.53.53,0,1,1,0,1.06Zm0-2H31.77a.53.53,0,0,1,0-1.06h1.59a.53.53,0,1,1,0,1.06Zm8.85-6.5a2.59,2.59,0,0,1-.1.5,18.94,18.94,0,0,1-1.64,2.56c-.68,1.09-6.5-1.26-5.75-2.72a14.9,14.9,0,0,0,1.47-2.63c.08-.53-.63-1-1.29-1-1.73-.14-3.93,0-5.76,0h-.31c-1.83,0-4-.14-5.76,0-.65.05-1.36.47-1.29,1a15,15,0,0,0,1.47,2.63c.75,1.46-5.06,3.82-5.75,2.72a18.87,18.87,0,0,1-1.64-2.56,2.65,2.65,0,0,1-.1-.5c-.85-3.81,2.43-7.7,7.38-8.1,1.89-.15,3.79-.24,5.68-.27h.31c1.9,0,3.79.12,5.68.27C39.78,15.86,43.07,19.75,42.22,23.57Z"/></g></g></svg>