<svg xmlns="http://www.w3.org/2000/svg" viewBox="0 0 59 59"><defs><style>.cls-1{fill:#010101;}.cls-2{fill:#f1c22b;}</style></defs><title>Asset 3</title><g id="Layer_2" data-name="Layer 2"><g id="Layer_1-2" data-name="Layer 1"><circle class="cls-1" cx="29.5" cy="29.5" r="29.5"/><path class="cls-2" d="M42,31.8a12.21,12.21,0,0,0-5.57-10.27l.39-.69,4,2.16a5.35,5.35,0,0,0-1.51-6.86l.43-1.08c-1.64-.65-2.29-.95-3-2.24A18.8,18.8,0,0,0,34.51,10a7.6,7.6,0,0,0-9.32-.09,14.17,14.17,0,0,0-2.37,2.93c-.69,1.29-1.55,1.64-3,2.2l.43,1A5.4,5.4,0,0,0,18.76,23l4-2.16.39.73a12.23,12.23,0,0,0-.56,20.06l-2.5,3.49,1,.69,2.55-3.54a12.26,12.26,0,0,0,12.47,0l2.5,3.49,1-.69-2.5-3.49A12.09,12.09,0,0,0,42,31.8ZM22.38,15.19a4.75,4.75,0,0,0,1.47-1.68A13.76,13.76,0,0,1,26,11,6.15,6.15,0,0,1,29.8,9.67,6.44,6.44,0,0,1,33.73,11a17.74,17.74,0,0,1,2,2.46,4.71,4.71,0,0,0,1.55,1.81,5.47,5.47,0,0,0-6,2.67l4.44,2.42-.39.65a12.25,12.25,0,0,0-5.61-1.38A12.43,12.43,0,0,0,24.15,21l-.39-.69,4.44-2.42A5.44,5.44,0,0,0,22.38,15.19ZM29.8,42.81a11,11,0,1,1,11-11A11,11,0,0,1,29.8,42.81Zm4.83-14.54.6,1L29.16,32.8V22.36h1.21v8.37Z"/></g></g></svg>