<svg xmlns="http://www.w3.org/2000/svg" viewBox="0 0 48.28 62.46"><title>barmenu</title><g id="Layer_2" data-name="Layer 2"><g id="Layer_1-2" data-name="Layer 1"><path d="M2.71,62.46H45.56a2.72,2.72,0,0,0,2.71-2.71v-57A2.72,2.72,0,0,0,45.56,0H2.71A2.72,2.72,0,0,0,0,2.71v57A2.72,2.72,0,0,0,2.71,62.46Zm12.5-52H33.06a3.55,3.55,0,0,0,3.57-3.52v-1H42V56.07H6.26V5.87h5.39v1A3.55,3.55,0,0,0,15.22,10.41ZM35.07,6.89a2,2,0,0,1-2,2H15.22a2,2,0,0,1-2-2v-1H35.07v1ZM13.21,4.31V1.56H35.07V4.31ZM1.56,2.71A1.15,1.15,0,0,1,2.71,1.56h8.93V4.31H5.48a.78.78,0,0,0-.78.78V56.85a.78.78,0,0,0,.78.78H42.8a.78.78,0,0,0,.78-.78V5.09a.78.78,0,0,0-.78-.78H36.63V1.56h8.93a1.15,1.15,0,0,1,1.15,1.15v57a1.15,1.15,0,0,1-1.15,1.15H2.71a1.15,1.15,0,0,1-1.15-1.15v-57Z"/><path d="M23.29,40.63V50.91H20a.78.78,0,1,0,0,1.56h8.22a.78.78,0,1,0,0-1.56H24.85V40.63c4.7-.23,6.91-2.45,7.94-4.33,1.84-3.36,1.32-8.36-1.29-12.45-1.43-2.23-1.1-3.51-.57-5.64a25,25,0,0,0,.71-3.72.78.78,0,0,0-.78-.86H17.27a.78.78,0,0,0-.78.86,25,25,0,0,0,.71,3.72c.53,2.13.86,3.41-.57,5.64C14,27.93,13.51,32.94,15.35,36.3,16.38,38.18,18.59,40.41,23.29,40.63ZM30,15.19c-.15,1-.37,1.87-.56,2.64A9.83,9.83,0,0,0,29,21.62a7.07,7.07,0,0,0-2.2-.32,7.25,7.25,0,0,0-3.34.77,5.7,5.7,0,0,1-2.7.63A5.49,5.49,0,0,1,19,22.45a8.38,8.38,0,0,0-.28-4.62c-.2-.78-.41-1.63-.56-2.64H30Zm-12,9.5c.17-.27.32-.53.45-.78a7,7,0,0,0,2.32.36,7.25,7.25,0,0,0,3.34-.77,6.06,6.06,0,0,1,5.4,0l.08,0a9.91,9.91,0,0,0,.64,1.16c2.32,3.62,2.81,8,1.24,10.86-1.27,2.32-3.81,3.54-7.35,3.55S18,37.87,16.72,35.55C15.15,32.67,15.64,28.31,18,24.69Z"/></g></g></svg>