<svg xmlns="http://www.w3.org/2000/svg" viewBox="0 0 70.18 44.58"><title>barsetup</title><g id="Layer_2" data-name="Layer 2"><g id="Layer_1-2" data-name="Layer 1"><path d="M.91,8.35H69.27a.91.91,0,0,0,.91-.91V.91A.91.91,0,0,0,69.27,0H.91A.91.91,0,0,0,0,.91H0V7.44a.91.91,0,0,0,.91.91Zm.91-6.54H68.35V6.53H1.82Z"/><path d="M6.44,11.37a.91.91,0,0,0-.91.91V39.34a.91.91,0,0,0,.91.91h6.11A8.85,8.85,0,0,0,12,42.93v.74a.91.91,0,0,0,.91.91H16.7a.91.91,0,0,0,.91-.91,2.73,2.73,0,0,1,2.72-2.73h3A2.73,2.73,0,0,1,26,43.67a.91.91,0,0,0,.91.91h3.79a.91.91,0,0,0,.91-.91v-.74a8.88,8.88,0,0,0-.57-2.67h9.27a8.85,8.85,0,0,0-.56,2.67v.74a.91.91,0,0,0,.91.91H44.5a.91.91,0,0,0,.91-.91,2.73,2.73,0,0,1,2.72-2.73h3a2.73,2.73,0,0,1,2.72,2.73.91.91,0,0,0,.91.91h3.79a.91.91,0,0,0,.91-.91v-.74a8.89,8.89,0,0,0-.56-2.67h5.89a.91.91,0,0,0,.91-.91h0V12.19a.91.91,0,0,0-1.82,0V38.43H58l-.17,0a8.09,8.09,0,0,0-5.49-2.9V26.64a.91.91,0,0,0-1.82-.08s0,.05,0,.08v9.77a.91.91,0,0,0,.91.91h0c.23,0,5.62,0,6.13,5.44h-2a4.55,4.55,0,0,0-4.45-3.63h-3a4.55,4.55,0,0,0-4.45,3.63h-2c.49-5.34,5.74-5.44,6.11-5.44h0a.91.91,0,0,0,.92-.89s0,0,0,0V26.73a.91.91,0,1,0-1.82,0v8.82a8.11,8.11,0,0,0-5.5,2.91l-.2,0H30.49a.91.91,0,0,0-.37.08,8.08,8.08,0,0,0-5.54-3V26.64a.91.91,0,0,0-1.82-.08s0,.05,0,.08v9.77a.91.91,0,0,0,.91.91h0c.23,0,5.62,0,6.13,5.44h-2a4.55,4.55,0,0,0-4.44-3.63h-3a4.55,4.55,0,0,0-4.45,3.63h-2c.49-5.34,5.74-5.44,6.11-5.44h0a.91.91,0,0,0,.92-.9h0V26.73a.91.91,0,0,0-1.82,0v8.82a8.09,8.09,0,0,0-5.54,3,.89.89,0,0,0-.37-.08H7.35V12.28A.91.91,0,0,0,6.44,11.37Z"/><path d="M31.2,24.3a.91.91,0,0,0,.91-.91V22.5a5,5,0,0,0-4.95-4.95H16.47a5,5,0,0,0-4.94,4.95v.89a.91.91,0,0,0,.91.91ZM16.47,19.38h10.7a3.12,3.12,0,0,1,3.12,3.1H13.35A3.12,3.12,0,0,1,16.47,19.38Z"/><path d="M59,24.3a.91.91,0,0,0,.91-.91V22.5A5,5,0,0,0,55,17.55H44.27a5,5,0,0,0-4.95,4.95v.89a.91.91,0,0,0,.91.91ZM44.27,19.38H55a3.12,3.12,0,0,1,3.12,3.1H41.15a3.12,3.12,0,0,1,3.12-3.1Z"/></g></g></svg>