<svg xmlns="http://www.w3.org/2000/svg" viewBox="0 0 47 64"><title>beertap</title><g id="Layer_2" data-name="Layer 2"><g id="Layer_1-2" data-name="Layer 1"><path d="M45,18H40V15.93a8,8,0,1,0-2,0V18H33a1,1,0,0,0-1,1V36H24V33.82A3,3,0,0,0,25.22,29a3,3,0,0,0-1.15-4.79L25.58,6.07a5.6,5.6,0,1,0-11.16,0l1.51,18.14A3,3,0,0,0,14.78,29,3,3,0,0,0,16,33.82v2.26a5,5,0,0,0-2.92,1.51L.27,51.32a1,1,0,0,0,0,1.39l3,3a1,1,0,0,0,1.29.11l13-9.26A3,3,0,0,1,19.28,46H32V63a1,1,0,0,0,1,1H45a1,1,0,0,0,1-1V19A1,1,0,0,0,45,18ZM33,8a6,6,0,1,1,6,6A6,6,0,0,1,33,8ZM18,34h4v2H18Zm5-2H17a1,1,0,0,1,0-2h6a1,1,0,1,1,0,2Zm-7-5a1,1,0,0,1,1-1h6a1,1,0,0,1,0,2H17A1,1,0,0,1,16,27ZM17.35,3.16A3.6,3.6,0,0,1,23.59,5.9L22.08,24H17.92L16.41,5.9A3.57,3.57,0,0,1,17.35,3.16ZM44,62H34V45a1,1,0,0,0-1-1H19.28a5,5,0,0,0-2.91.93L4.11,53.69,2.39,52,14.55,39a3,3,0,0,1,2.19-1H33a1,1,0,0,0,1-1V20H44Z"/><path d="M43,8a4,4,0,1,0-4,4A4,4,0,0,0,43,8ZM37,8a2,2,0,1,1,2,2A2,2,0,0,1,37,8Z"/></g></g></svg>