<svg xmlns="http://www.w3.org/2000/svg" viewBox="0 0 62.23 65.1"><title>glassware</title><g id="Layer_2" data-name="Layer 2"><g id="Layer_1-2" data-name="Layer 1"><path d="M8.53,19.8a1,1,0,0,0-.7-1.2,1,1,0,0,0-1.2.7,30.94,30.94,0,0,0,1,17.5.86.86,0,0,0,.9.7.37.37,0,0,0,.3-.1,1,1,0,0,0,.6-1.3A27.66,27.66,0,0,1,8.53,19.8Z"/><path d="M36.13,38.3a1,1,0,1,0-1.8-1,5.57,5.57,0,0,1-5,3h-.2a1,1,0,1,0,0,2h.2A7.66,7.66,0,0,0,36.13,38.3Z"/><path d="M55.93,14.5l-2.1-1.2c-1.6-1.4-.8-3-1-6.4h.5a.94.94,0,0,0,1-1V1a.94.94,0,0,0-1-1H42.63a.94.94,0,0,0-1,1V5.9c0,1.2,1.3,1,1.4,1-.2,3.3.6,5-1,6.4-1.3.9-4.5,2.1-6.6,5.5H25.23a44,44,0,0,0-1.3-4.8,1,1,0,0,0-.9-.6H3a.87.87,0,0,0-.9.6c-2.5,6.3-3.2,15.7.1,25.2,1.5,4.1,3.5,12.1.8,18.8-1.7,3.4-.4,6.9,5,7.1h9.9c2.6-.1,4.3-.9,5.1-2.3,1.2-2.1-.1-4.7-.1-4.7-1.9-4.6-1.5-9.8-.7-13.7a10.56,10.56,0,0,0,6.6,2.7v16h-1.7a1,1,0,0,0,0,2h5.6a1,1,0,0,0,0-2h-1.8v-16a12.66,12.66,0,0,0,2.8-.6V59.3a3.12,3.12,0,0,0,3.1,3.1h22.3a3.12,3.12,0,0,0,3.1-3.1v-34A11.91,11.91,0,0,0,55.93,14.5ZM43.63,2h8.6V4.9h-8.6ZM21.43,61.7c-.6,1-2.2,1.3-3.4,1.3H8.23c-3.2-.1-4.7-1.5-3.3-4.3,3-7.4.8-15.9-.7-20.3a35.27,35.27,0,0,1-.4-23.1h18.5c.2.7.6,1.9.9,3.4h-1.9a1,1,0,0,0-.9,1.5c1.4,2.7,1.8,6.8-.1,9.8a10.85,10.85,0,0,0,.4,12.4c-1.1,4.4-1.8,10.7.5,16.4A3.88,3.88,0,0,1,21.43,61.7Zm.8-30.9c2.3-3.8,1.4-8,.6-10.1h14c-1.2,3.5-1.2,7.3.8,10.4A9,9,0,0,1,29.93,45h-.2A9,9,0,0,1,22.23,30.8Zm36.9,29.4H36.83a1.11,1.11,0,0,1-1.1-1.1V45.4c5.6-3.4,6.9-11.1,3.4-15.6-2.6-4.4,0-9.5,0-9.6a1,1,0,0,0-.9-1.5h-.3c3.2-3.8,7.1-3.1,7.1-7.6V6.9h5.7c.2,1.7-.9,6.4,1.9,8l2.2,1.3a10.13,10.13,0,0,1,5.3,9C59.83,58.6,61.23,60.2,59.13,60.2Z"/><path d="M56.23,47h0a.94.94,0,0,0-1,1v3.3h0c-.2,4.3,1,4-4.4,3.9h-3.1a1,1,0,0,0-1,1,.94.94,0,0,0,1,1h6.5a3,3,0,0,0,3-3V51.4h0V48A1,1,0,0,0,56.23,47Z"/><path d="M51,17.4l-.2-.2a1,1,0,0,0-1.3,1.5c2.1,1.7,5.8,2.3,5.8,6.4a1,1,0,1,0,2,0C57.23,20.2,53.33,18.8,51,17.4Z"/></g></g></svg>