<svg xmlns="http://www.w3.org/2000/svg" viewBox="0 0 56.7 56.7"><title>mixologist</title><g id="Layer_2" data-name="Layer 2"><g id="Layer_1-2" data-name="Layer 1"><circle cx="27.17" cy="48.46" r="1.18"/><circle cx="27.17" cy="53.16" r="1.18"/><path d="M53.16,35.44V30.71a1.18,1.18,0,1,0,0-2.36H46.07a1.18,1.18,0,0,0,0,2.36v4.72L42.65,40C39.21,38.6,37.8,37.5,37.53,37h0c-.27-1-.65-1.69-1.11-1.77l-.25,0c3.42-3.57,6.15-8.66,6.15-14A20.36,20.36,0,0,0,40,7.38v0h0a18.46,18.46,0,0,0-3.47-4.21C35,1.75,31.17,0,26.6,0a17.53,17.53,0,0,0-10,3.15C10,7.66,10.65,19,10.65,19a12.65,12.65,0,0,0,1.29.23q-.09,1-.09,2c0,5.3,2.71,10.38,6.11,13.95l-.21.06c-.53.19-.92.88-1.18,1.83h0c-.31.6-2,1.87-6.65,3.63a31.29,31.29,0,0,1-5.23,2l-.2.06A6.48,6.48,0,0,0,0,48.94V56.7H56.7V40.22ZM48,36.85l.47-.63V30.71H50.8v5.51l.47.63L54.34,41v1.53H44.89V41Zm6.37,8v4.73H44.89V44.89Zm-35.46-.57A14.86,14.86,0,0,1,18.52,41a12.28,12.28,0,0,1,.37-3.54,15.57,15.57,0,0,1,3.84,1.4q.38.21.76.39a3.39,3.39,0,0,0-.12.94,5.18,5.18,0,0,0,.51,2.16L22.48,43A29.35,29.35,0,0,1,18.88,44.32Zm7.47-2.38a3.07,3.07,0,0,1-.61-1.71,1.5,1.5,0,0,1,0-.17,6.17,6.17,0,0,0,2.67,0,1.5,1.5,0,0,1,0,.17,3.07,3.07,0,0,1-.61,1.71c-.32.42-.62.58-.73.58S26.67,42.36,26.35,41.94Zm4.35-2.49,1-.42a29.23,29.23,0,0,1,3.59-1.31A14.81,14.81,0,0,1,35.64,41a12.23,12.23,0,0,1-.37,3.54,15.74,15.74,0,0,1-3.9-1.43l-1.16-.58a5.22,5.22,0,0,0,.58-2.3A3.55,3.55,0,0,0,30.71,39.46Zm6.54-26.87a5.37,5.37,0,0,1,1.61-2.26,17.19,17.19,0,0,1,1.3,4.78c0,.28.06.55.08.81A8.35,8.35,0,0,0,37.24,12.59Zm-23.76.54A17.47,17.47,0,0,1,15,8.55,9.16,9.16,0,0,1,17.9,5.1,15.14,15.14,0,0,1,26.6,2.36,13.76,13.76,0,0,1,34.92,4.9a16.14,16.14,0,0,1,2.81,3.32A7.46,7.46,0,0,0,35,11.78a7.42,7.42,0,0,0-1.2-.1A11.82,11.82,0,0,0,28,13.5,26.33,26.33,0,0,1,15,17.08c-.74,0-1.39,0-1.94-.08A26.47,26.47,0,0,1,13.48,13.12Zm.82,6.31H15a28.66,28.66,0,0,0,14.22-3.88A9.6,9.6,0,0,1,33.82,14c3,0,4.32,2.52,5.13,4.81a4.47,4.47,0,0,0,1,1.69c0,.22,0,.44,0,.67A18.28,18.28,0,0,1,35.1,32.86a18.68,18.68,0,0,1-4.4,3.74,7.67,7.67,0,0,1-3.62,1.25,6,6,0,0,1-2.28-.56l-1-.49-.35-.2a18.7,18.7,0,0,1-4.39-3.74,18.28,18.28,0,0,1-4.86-11.66Q14.21,20.3,14.3,19.43Zm3.45,27.4.28,0h.12c.35,2.18.84,4.69,1.52,7.49H11A41.63,41.63,0,0,1,11,42.81a34.3,34.3,0,0,0,5.18-2.41C16.1,43.42,16.7,46.65,17.75,46.83ZM2.36,48.94A4.12,4.12,0,0,1,5.17,45l.13,0a23.3,23.3,0,0,0,3.14-1.07,47.09,47.09,0,0,0,.22,10.4H2.36Zm19.75,5.4c-.76-3-1.28-5.73-1.64-8a53.18,53.18,0,0,0,4.94-2,2.87,2.87,0,0,0,1.68.58,2.82,2.82,0,0,0,1.56-.5,30.19,30.19,0,0,0,5.19,2.25c-.36,2.23-.87,4.82-1.59,7.72H22.11Zm12.57,0c.68-2.79,1.17-5.28,1.52-7.45l.22-.06c1.23-.44,1.69-3.55,1.58-6.45a31.82,31.82,0,0,0,4.54,2.16V54.34H34.68Zm10.21,0V52h9.45v2.36Z"/><path d="M47.25,48.43a1.18,1.18,0,1,0-1.18-1.18A1.18,1.18,0,0,0,47.25,48.43Z"/><path d="M52,48.43a1.18,1.18,0,1,0-1.18-1.18A1.18,1.18,0,0,0,52,48.43Z"/></g></g></svg>