<?xml version="1.0" encoding="utf-8"?>
<!-- Generator: Adobe Illustrator 21.0.0, SVG Export Plug-In . SVG Version: 6.00 Build 0)  -->
<svg version="1.1" id="Layer_1" xmlns="http://www.w3.org/2000/svg" xmlns:xlink="http://www.w3.org/1999/xlink" x="0px" y="0px"
	 viewBox="0 0 22 22" style="enable-background:new 0 0 22 22;" xml:space="preserve">
<style type="text/css">
	.st0{fill:#1D7F3F;}
</style>
<path class="st0" d="M11,0.4C5.2,0.4,0.4,5.2,0.4,11S5.2,21.6,11,21.6S21.6,16.8,21.6,11S16.8,0.4,11,0.4z M11,20.9
	c-5.4,0-9.9-4.4-9.9-9.9S5.6,1.1,11,1.1s9.9,4.4,9.9,9.9S16.4,20.9,11,20.9z M17,10.6h-5.6V3.4c0-0.2-0.2-0.4-0.4-0.4
	s-0.4,0.2-0.4,0.4V11c0,0.2,0.2,0.4,0.4,0.4h6c0.2,0,0.4-0.2,0.4-0.4S17.2,10.6,17,10.6z"/>
</svg>
