<?xml version="1.0" encoding="utf-8"?>
<!-- Generator: Adobe Illustrator 21.0.0, SVG Export Plug-In . SVG Version: 6.00 Build 0)  -->
<svg version="1.1" id="Layer_1" xmlns="http://www.w3.org/2000/svg" xmlns:xlink="http://www.w3.org/1999/xlink" x="0px" y="0px"
	 viewBox="0 0 19 26" style="enable-background:new 0 0 19 26;" xml:space="preserve">
<style type="text/css">
	.st0{fill:none;stroke:#1D7F3F;stroke-miterlimit:10;}
</style>
<g>
	<path class="st0" d="M1.8,8.8c0,0.7,0.1,1.4,0.3,2.1c0.1,0.3,0.2,0.5,0.3,0.8l0.2,0.5l6.9,12.8l6.9-12.8l0.2-0.5
		c0.1-0.3,0.2-0.5,0.3-0.8c0.2-0.7,0.3-1.3,0.3-2.1c0-4.2-3.4-7.7-7.7-7.7S1.8,4.5,1.8,8.8z M9.5,1.5c4,0,7.3,3.3,7.3,7.3
		c0,0.7-0.1,1.3-0.3,1.9c-0.1,0.3-0.2,0.5-0.3,0.7l-0.2,0.4L9.5,24L3,12l-0.2-0.5c-0.1-0.2-0.2-0.5-0.2-0.7
		c-0.2-0.6-0.3-1.3-0.3-1.9C2.2,4.8,5.5,1.5,9.5,1.5z"/>
	<path class="st0" d="M9.5,12.1c1.9,0,3.4-1.5,3.4-3.4c0-1.9-1.5-3.4-3.4-3.4c-1.9,0-3.4,1.5-3.4,3.4C6.1,10.6,7.6,12.1,9.5,12.1z
		 M9.5,5.7c1.6,0,3,1.3,3,3c0,1.6-1.3,3-3,3s-3-1.3-3-3C6.5,7.1,7.9,5.7,9.5,5.7z"/>
</g>
</svg>
