<svg xmlns="http://www.w3.org/2000/svg" viewBox="0 0 59.27 52.72"><title>waiters</title><g id="Layer_2" data-name="Layer 2"><g id="Layer_1-2" data-name="Layer 1"><path d="M29.37,36a9.58,9.58,0,0,1-7.2-3.46.57.57,0,1,1,.84-.77,8.49,8.49,0,0,0,6.36,3.09c2.66,0,4.87-1.74,6.26-3.2a.57.57,0,0,1,.83.78C34.24,34.79,31.79,36,29.37,36Z"/><path d="M58.26,52.72H1a1,1,0,0,1-1-1.25c.83-3.33,2.9-11.19,4.1-12.36.52-.5,6.16-2.82,16.79-6.9a22.43,22.43,0,0,1-3.56-7.52,5.4,5.4,0,0,1-1.51-3.39,4.26,4.26,0,0,1,.76-2.88c-.79-1.58-3.07-6.19-.39-11.36,2-3.85,4.49-4.66,6.24-4.66a6.9,6.9,0,0,1,3.32.93C27.1,2.3,30.47,0,34.11,0c2.56,0,6.1,1.18,8.45,6.78,1.68,4,.37,8.63-.26,10.87l-.15.55A4.09,4.09,0,0,1,43,21.05a5.66,5.66,0,0,1-1.41,3.61,21.22,21.22,0,0,1-3.87,7.44C43,33.92,54.35,38,55.58,39s2.85,8.31,3.67,12.48a1,1,0,0,1-1,1.2Zm-56-2H57c-.94-4.58-2.2-9.49-2.8-10.18-.9-.7-10.23-4.15-18.53-7a1,1,0,0,1-.4-1.64,19.11,19.11,0,0,0,4.45-8,1,1,0,0,1,.4-.6A3.49,3.49,0,0,0,41,21a2,2,0,0,0-.58-1.64c-.58-.48-.41-1.07-.08-2.24.57-2,1.75-6.2.34-9.54C39.17,3.88,36.95,2,34.12,2c-3.85,0-7.56,3.28-7.6,3.31a1,1,0,0,1-1.29,0,5.09,5.09,0,0,0-2.77-.95C20.72,4.42,19.22,5.62,18,8c-2.23,4.31-.3,8.14.43,9.58.29.58.62,1.23,0,1.78a2.12,2.12,0,0,0-.6,1.8,3.29,3.29,0,0,0,1,2.15,1,1,0,0,1,.41.59A19.54,19.54,0,0,0,23.33,32a1,1,0,0,1-.38,1.62C16.77,36,6.7,39.9,5.5,40.59,4.93,41.38,3.47,46.19,2.3,50.72Z"/><path d="M17.77,19.19a.57.57,0,0,1-.43-.94,15.9,15.9,0,0,0,2.6-4.2,14.4,14.4,0,0,0,.78-4.64.57.57,0,0,1,1-.43S25,12.6,29.56,12c1.53-.21,3.68-1.52,5.25-2.48,1.8-1.1,2.47-1.51,2.95-.93,2.07,2.52,3.77,9.38,3.84,9.67a.57.57,0,0,1-1.11.27c0-.07-1.6-6.47-3.43-9-.36.16-1.07.59-1.65.95-1.66,1-3.92,2.39-5.69,2.64a10.33,10.33,0,0,1-7.91-2.47A20.32,20.32,0,0,1,21,14.37,16.67,16.67,0,0,1,18.2,19,.57.57,0,0,1,17.77,19.19Z"/><path d="M29.84,52a.57.57,0,0,1-.45-.22L16.74,35.38a.57.57,0,0,1,.9-.69L30.29,51.13a.57.57,0,0,1-.45.92Z"/><path d="M30.13,52.09a.57.57,0,0,1-.46-.91L42,34.66a.57.57,0,1,1,.91.68L30.59,51.86A.57.57,0,0,1,30.13,52.09Z"/><path d="M10.67,52.15a.57.57,0,0,1-.57-.57c0-3.76-2.71-12.8-2.74-12.9a.57.57,0,0,1,1.09-.33c.11.38,2.79,9.29,2.79,13.22A.57.57,0,0,1,10.67,52.15Z"/><path d="M46.61,52.17A.57.57,0,0,1,46,51.6c0-3.93,3-13.64,3.15-14.06a.57.57,0,1,1,1.09.34c0,.1-3.1,10-3.1,13.72A.57.57,0,0,1,46.61,52.17Z"/><path d="M29.66,41A2.39,2.39,0,1,1,32,38.64,2.36,2.36,0,0,1,29.66,41Zm0-3.63a1.25,1.25,0,1,0,1.19,1.25A1.22,1.22,0,0,0,29.66,37.39Z"/><path d="M23.61,41.48a.57.57,0,0,1-.57-.57V36.37a.57.57,0,0,1,.77-.53l4.34,1.65a.57.57,0,0,1,.37.53v1.24a.57.57,0,0,1-.37.53l-4.34,1.65A.54.54,0,0,1,23.61,41.48Zm.57-4.29v2.89l3.2-1.22v-.45Z"/><path d="M36.15,41.48a.57.57,0,0,1-.2,0l-4.34-1.65a.57.57,0,0,1-.37-.53V38a.57.57,0,0,1,.37-.53L36,35.84a.57.57,0,0,1,.77.53v4.54a.57.57,0,0,1-.25.47A.58.58,0,0,1,36.15,41.48Zm-3.77-2.61,3.2,1.22V37.19l-3.2,1.22Z"/><path d="M22.29,49.15h-8a.57.57,0,1,1,0-1.14h8a.57.57,0,0,1,0,1.14Z"/></g></g></svg>