<svg xmlns="http://www.w3.org/2000/svg" viewBox="0 0 63.51 63.29"><title>winesupply</title><g id="Layer_2" data-name="Layer 2"><g id="Layer_1-2" data-name="Layer 1"><path d="M36.34,62.51a.74.74,0,0,0-.78-.78h-4V43.51a7.85,7.85,0,0,0,6.15-3.11c5.06-6.62,1.09-21.33.93-22a.77.77,0,0,0-.78-.54H23.65a.94.94,0,0,0-.78.54c-.16.62-4.2,15.34.78,22a8,8,0,0,0,6.23,3.11V61.73h-4a.78.78,0,0,0,0,1.56h9.65A.85.85,0,0,0,36.34,62.51ZM24.27,19.31H37.19c.16.62.39,1.71.62,3a8.83,8.83,0,0,0-3.66-.78,8.12,8.12,0,0,0-4.28,1.09,7.37,7.37,0,0,1-3.66.93,7.82,7.82,0,0,1-2.72-.47C23.81,21.41,24.12,20.08,24.27,19.31ZM25,39.39c-2.65-3.5-2.41-10-1.71-14.71a9,9,0,0,0,3,.47,8.12,8.12,0,0,0,4.28-1.09,7.37,7.37,0,0,1,3.66-.93,7.62,7.62,0,0,1,3.66.93l.39.16c.7,4.83,1,11.52-1.71,15.18A6.47,6.47,0,0,1,31,41.88h-.39A6.33,6.33,0,0,1,25,39.39Z"/><path d="M8.78,43.44V61.65h-4a.78.78,0,1,0,0,1.56h9.65a.78.78,0,1,0,0-1.56h-4V43.51a7.85,7.85,0,0,0,6.15-3.11c5.06-6.62,1.09-21.33.93-22a.77.77,0,0,0-.78-.54H2.48a.85.85,0,0,0-.78.54c-.16.62-4.2,15.34.78,22A8.21,8.21,0,0,0,8.78,43.44ZM3.1,19.31H16c.16.62.39,1.71.62,3A8.83,8.83,0,0,0,13,21.56,8.12,8.12,0,0,0,8.7,22.65,7.37,7.37,0,0,1,5,23.59a7.82,7.82,0,0,1-2.72-.47C2.63,21.41,2.94,20.08,3.1,19.31Zm-1,5.37a9,9,0,0,0,3,.47,8.12,8.12,0,0,0,4.28-1.09A7.37,7.37,0,0,1,13,23.12a7.62,7.62,0,0,1,3.66.93l.39.16c.7,4.75,1,11.52-1.71,15.18a6.47,6.47,0,0,1-5.53,2.49H9.4a6.57,6.57,0,0,1-5.6-2.57C1.15,35.89,1.39,29.42,2.09,24.68Z"/><path d="M48.33,19.85a10.33,10.33,0,0,0-5.6,9.26v31.6a2.59,2.59,0,0,0,2.57,2.57H60.94a2.59,2.59,0,0,0,2.57-2.57V29a10.36,10.36,0,0,0-5.76-9.34A1.39,1.39,0,0,1,57,18.45V7.32a1.5,1.5,0,0,0,1.17-1.48V3.89a1.54,1.54,0,0,0-.93-1.4V1.32A1.31,1.31,0,0,0,55.88,0H50.43A1.27,1.27,0,0,0,49.1,1.32V2.49a1.54,1.54,0,0,0-.93,1.4V5.84a1.5,1.5,0,0,0,1,1.4V18.6A1.62,1.62,0,0,1,48.33,19.85ZM61.95,52.54H44.28V31.6H61.95Zm-1,9.19H45.29a1,1,0,0,1-1-1V54.18H61.95v6.54A1,1,0,0,1,60.94,61.73ZM57,21.17a8.73,8.73,0,0,1,4.9,7.94V30H44.28v-.93A8.93,8.93,0,0,1,49,21.25a2.91,2.91,0,0,0,1.63-2.57v-.86h4.75v.7A3,3,0,0,0,57,21.17ZM56.58,4V5.84H49.65V4Zm-1.17,12.3H50.66v-9h4.75Zm.23-14.71v.86h-5V1.56Z"/></g></g></svg>