<svg id="Layer_1" data-name="Layer 1" xmlns="http://www.w3.org/2000/svg" viewBox="0 0 184.35 121.57"><defs><style>.cls-1{fill:#f1c22e;}.cls-2{fill:#f7f4e8;}.cls-3{fill:#fff;}</style></defs><title>logo</title><path class="cls-1" d="M175.4,51.76A5.37,5.37,0,0,1,170,46.39V38c-6.75-.92-16-4.7-17.45-20.25L93.11,2.56,33.65,17.7C32.23,33.25,22.95,37,16.2,38v8.44a5.37,5.37,0,0,1-5.37,5.37c-3.87,0-6.78,5.66-6.78,9.32S7,70.41,10.83,70.41a5.37,5.37,0,0,1,5.37,5.37v8.44c6.75.92,16,4.7,17.45,20.25l59.47,15.14,59.47-15.14C154,88.92,163.28,85.14,170,84.23V75.78a5.37,5.37,0,0,1,5.37-5.37c3.87,0,6.78-5.66,6.78-9.33S179.27,51.76,175.4,51.76Zm0,16a8.06,8.06,0,0,0-8.05,8.05V82C160,83.61,152,88.61,150.12,102.33l-57,14.51-57-14.51C34.22,88.61,26.21,83.61,18.88,82v-6.2a8.06,8.06,0,0,0-8.05-8.05c-1.76,0-4.09-3.79-4.09-6.64s2.33-6.64,4.09-6.64a8.06,8.06,0,0,0,8.05-8.05V40.2c7.32-1.63,15.34-6.63,17.22-20.35l57-14.51,57,14.51C152,33.56,160,38.57,167.34,40.2v6.2a8.06,8.06,0,0,0,8.05,8.05c1.76,0,4.09,3.78,4.09,6.64S177.16,67.73,175.4,67.73Z"/><path class="cls-2" d="M93.11,115.17,37.55,101l-.06-.34c-2.29-13.11-10.29-18-16.6-19.86l-.39-.11V75.78A9.72,9.72,0,0,0,11,66.11h-.14L10.72,66a7.08,7.08,0,0,1-2.37-4.94,7.08,7.08,0,0,1,2.37-4.94l.12-.07H11a9.72,9.72,0,0,0,9.51-9.68V41.47l.39-.11c6.31-1.82,14.31-6.75,16.6-19.86l.06-.34L93.11,7l55.56,14.14.06.34c2.29,13.11,10.29,18,16.6,19.86l.39.11v4.92a9.72,9.72,0,0,0,9.51,9.68h.14l.12.07a7.08,7.08,0,0,1,2.37,4.94A7.08,7.08,0,0,1,175.5,66l-.12.07h-.14a9.72,9.72,0,0,0-9.51,9.67v4.92l-.39.11c-6.31,1.82-14.31,6.75-16.6,19.86l-.06.34Zm-54.62-15,54.62,13.9,54.62-13.9C150.15,87,158.16,81.88,164.64,79.9V75.78A10.81,10.81,0,0,1,175.05,65a6.45,6.45,0,0,0,1.73-3.94,6.45,6.45,0,0,0-1.73-3.94,10.81,10.81,0,0,1-10.41-10.75V42.28c-6.48-2-14.49-7.11-16.91-20.25L93.11,8.12,38.49,22C36.08,35.17,28.07,40.3,21.59,42.28v4.11A10.81,10.81,0,0,1,11.17,57.15a6.45,6.45,0,0,0-1.73,3.94A6.45,6.45,0,0,0,11.17,65,10.81,10.81,0,0,1,21.59,75.78V79.9c6.48,2,14.49,7.11,16.91,20.25"/><path class="cls-1" d="M93.33,12.84a1.79,1.79,0,1,0,1.79,1.79,1.79,1.79,0,0,0-1.79-1.79"/><path class="cls-1" d="M92.9,105.77a1.79,1.79,0,1,0,1.79,1.79,1.79,1.79,0,0,0-1.79-1.79"/><path class="cls-1" d="M16.19,60.87A1.79,1.79,0,1,0,18,59.09a1.79,1.79,0,0,0-1.79,1.79"/><path class="cls-1" d="M166.46,61.3a1.79,1.79,0,1,0,1.79-1.79,1.79,1.79,0,0,0-1.79,1.79"/><path class="cls-2" d="M85.7,27.59H83.29V26.32h6.09v1.26H87V37H85.7Z"/><path class="cls-2" d="M90.14,26.32h1.26V31H95V26.32h1.26V37H95V32.29H91.41V37H90.14Z"/><path class="cls-2" d="M97.45,26.32h5.33v1.26H98.72V31h3.76v1.26H98.72v3.43h4.07V37H97.45Z"/><path class="cls-1" d="M46.65,88.36v.09a1,1,0,1,0,1-1,1.74,1.74,0,1,1,1.73-1.76v.09h-.72v-.09a1,1,0,1,0-1,1,1.74,1.74,0,1,1-1.73,1.76v-.09Z"/><path class="cls-1" d="M51.73,84h1.76a1.7,1.7,0,0,1,0,3.39h-1v2.67h-.72Zm.72,2.68h1a1,1,0,0,0,0-2h-1Z"/><path class="cls-1" d="M57.47,88.45V85.68a1.73,1.73,0,0,1,3.46,0v2.77a1.73,1.73,0,1,1-3.46,0Zm2.74,0V85.68a1,1,0,0,0-2,0v2.77a1,1,0,1,0,2,0Z"/><path class="cls-1" d="M63.35,84h1.76a1.71,1.71,0,0,1,1.71,1.69,1.62,1.62,0,0,1-.74,1.37,1.52,1.52,0,0,1,.65,1.3v1.71H66V88.39a.93.93,0,0,0-.93-1h-1v2.67h-.72Zm1.76,2.68a1,1,0,1,0,0-2h-1v2Z"/><path class="cls-1" d="M70,84.75H68.63V84h3.46v.72H70.71v5.34H70Z"/><path class="cls-1" d="M74.62,88.36v.09a1,1,0,1,0,1-1,1.74,1.74,0,1,1,1.73-1.76v.09h-.72v-.09a1,1,0,1,0-1,1,1.74,1.74,0,1,1-1.73,1.76v-.09Z"/><path class="cls-1" d="M82.73,84h1.76a1.71,1.71,0,0,1,1.71,1.71,1.61,1.61,0,0,1-.75,1.32,1.6,1.6,0,0,1,.75,1.32,1.71,1.71,0,0,1-1.71,1.71H82.73Zm1.76,2.68a1,1,0,1,0,0-2h-1v2Zm0,2.67a1,1,0,0,0,1-1,1,1,0,0,0-1-1h-1v1.95Z"/><path class="cls-1" d="M88.52,85.68a1.73,1.73,0,0,1,3.46,0v4.42h-.72V87.43h-2v2.67h-.72Zm2.74,1v-1a1,1,0,0,0-2,0v1Z"/><path class="cls-1" d="M94.4,84h1.76a1.71,1.71,0,0,1,1.71,1.69,1.62,1.62,0,0,1-.74,1.37,1.52,1.52,0,0,1,.65,1.3v1.71h-.72V88.39a.93.93,0,0,0-.93-1h-1v2.67H94.4Zm1.76,2.68a1,1,0,1,0,0-2h-1v2Z"/><path class="cls-1" d="M109.29,84H111a1.74,1.74,0,0,1,1.73,1.73v2.6A1.74,1.74,0,0,1,111,90.09h-1.73ZM111,89.38a1,1,0,0,0,1-1v-2.6a1,1,0,0,0-1-1h-1v4.62Z"/><path class="cls-1" d="M115.17,84h.72v6.06h-.72Z"/><path class="cls-1" d="M118.31,85.68a1.73,1.73,0,0,1,3.46,0v4.42h-.72V85.68a1,1,0,0,0-2,0v4.42h-.72Z"/><path class="cls-1" d="M124.2,84h.72v6.06h-.72Z"/><path class="cls-1" d="M127.34,85.68a1.73,1.73,0,0,1,3.46,0v4.42h-.72V85.68a1,1,0,0,0-2,0v4.42h-.72Z"/><path class="cls-1" d="M133.23,88.45V85.68a1.73,1.73,0,0,1,3.46,0v.09H136v-.09a1,1,0,0,0-2,0v2.77a1,1,0,1,0,2,0v-1h-1v-.72h1.73v1.74a1.73,1.73,0,1,1-3.46,0Z"/><rect class="cls-1" x="40.78" y="41.92" width="104.66" height="1.08"/><rect class="cls-1" x="41.08" y="77.29" width="104.66" height="1.08"/><path class="cls-3" d="M41.92,47.09h7.61a7.64,7.64,0,0,1,7.61,7.61V66.12a7.64,7.64,0,0,1-7.61,7.61H41.92Zm7.61,23.49A4.44,4.44,0,0,0,54,66.12V54.7a4.44,4.44,0,0,0-4.45-4.45H45.08V70.58Z"/><path class="cls-3" d="M60.2,66.51V47.09h3.16V66.51a4.45,4.45,0,0,0,8.91,0V47.09h3.16V66.51a7.61,7.61,0,1,1-15.23,0Z"/><path class="cls-3" d="M78.47,66.51V54.32a7.61,7.61,0,1,1,15.23,0v.38H90.54v-.38a4.45,4.45,0,1,0-8.91,0V66.51a4.45,4.45,0,0,0,8.91,0V62H86.08V58.85H93.7v7.65a7.61,7.61,0,1,1-15.23,0Z"/><path class="cls-3" d="M96.74,66.51V54.32a7.61,7.61,0,0,1,15.23,0V66.51a7.61,7.61,0,0,1-15.23,0Zm12.07,0V54.32a4.45,4.45,0,1,0-8.91,0V66.51a4.45,4.45,0,0,0,8.91,0Z"/><path class="cls-3" d="M115,66.51V47.09h3.16V66.51a4.45,4.45,0,0,0,8.91,0V47.09h3.16V66.51a7.61,7.61,0,0,1-15.23,0Z"/><path class="cls-3" d="M138.16,50.25h-6V47.09h15.23v3.16h-6.05V73.74h-3.16Z"/><circle class="cls-1" cx="103.77" cy="87.38" r="1.15"/></svg>