<svg xmlns="http://www.w3.org/2000/svg" viewBox="0 0 65.06 69.43"><defs><style>.cls-1{fill:#f15a24;}</style></defs><title>ds logoAsset 3</title><g id="Layer_2" data-name="Layer 2"><g id="Layer_1-2" data-name="Layer 1"><path id="_Compound_Path_" data-name="&lt;Compound Path&gt;" class="cls-1" d="M59.43,13.27,38.15,1.3a12.81,12.81,0,0,0-11.25,0l-21.28,12A12.08,12.08,0,0,0,0,22.75V46.68a12.09,12.09,0,0,0,5.62,9.48l21.28,12a12.83,12.83,0,0,0,11.25,0l21.28-12a12.08,12.08,0,0,0,5.62-9.48V22.75A12.07,12.07,0,0,0,59.43,13.27Zm-14,10.68h-15c-4.32,0-4.64.86-4.64,3.71,0,2.69.3,3.61,4,3.69v0h4.92c6.33,0,9.43,1.85,10.41,6.69a21,21,0,0,1,.35,4.08c0,7.37-2.89,10-10.76,10h-15v-6.7h15c4.32,0,4.64-.86,4.64-3.71s-.32-3.69-4.51-3.7H30.4c-6.53,0-9.62-1.85-10.49-6.69A19.55,19.55,0,0,1,19.64,28c0-7.91,2.89-10.76,10.76-10.76h15Z"/></g></g></svg>